<?xml version="1.0" encoding="utf-8"?>
<!-- Generator: Adobe Illustrator 23.0.5, SVG Export Plug-In . SVG Version: 6.00 Build 0)  -->
<svg version="1.1" id="Layer_1" xmlns="http://www.w3.org/2000/svg" xmlns:xlink="http://www.w3.org/1999/xlink" x="0px" y="0px"
	 viewBox="0 0 278.4 100" style="enable-background:new 0 0 278.4 100;" xml:space="preserve">
<style type="text/css">
	.st0{fill:#363638;}
	.st1{fill:#272829;}
	.st2{fill:#F7942D;}
	.st3{fill:#D98327;}
	.st4{fill:#FFFFFF;}
</style>
<g id="XMLID_1_">
	<g id="XMLID_13_">
		<g id="XMLID_34_">
			<rect id="XMLID_42_" x="31.7" y="52.1" class="st4" width="2.7" height="2.7"/>
			<rect id="XMLID_41_" x="35.2" y="52.1" class="st4" width="2.7" height="2.7"/>
			<rect id="XMLID_40_" x="31.7" y="55.7" class="st4" width="2.7" height="2.7"/>
			<rect id="XMLID_35_" x="35.2" y="55.7" class="st4" width="2.7" height="2.7"/>
		</g>
		<g id="XMLID_24_">
			<g>
				<rect id="XMLID_103_" x="62.1" y="53.9" class="st4" width="4.7" height="4.7"/>
				<rect id="XMLID_102_" x="68.2" y="53.9" class="st4" width="4.7" height="4.7"/>
				<rect id="XMLID_101_" x="62.1" y="60" class="st4" width="4.7" height="4.7"/>
				<rect id="XMLID_100_" x="68.2" y="60" class="st4" width="4.7" height="4.7"/>
			</g>
		</g>
		<g id="XMLID_19_">
			<polygon id="XMLID_22_" class="st4" points="58.4,42.4 58.4,38.9 54.2,38.9 54.2,46.6 34.2,66.6 43.5,66.6 67.4,42.7 67.4,33.4 
							"/>
			<polygon id="XMLID_20_" class="st4" points="67.4,33.4 67.4,42.7 91.4,66.6 100.7,66.6 			"/>
		</g>
		<g id="XMLID_14_">
			<polygon id="XMLID_17_" class="st4" points="24.8,46.2 24.8,43.1 21.3,43.1 21.3,49.8 6.6,64.5 14.5,64.5 34.8,44.2 34.8,36.2 
							"/>
			<polygon id="XMLID_15_" class="st4" points="34.8,36.2 34.8,44.2 44.2,53.6 48.2,49.6 			"/>
		</g>
	</g>
	<g id="XMLID_8_">
		<path id="XMLID_11_" class="st4" d="M17.1,51.4c0-0.5,0-0.9,0-1.4c0-20.2,16.4-36.6,36.6-36.6S90.3,29.8,90.3,50
			c0,1.1-0.1,2.3-0.2,3.4l4.3,4.3c0.5-2.5,0.7-5.1,0.7-7.7c0-22.9-18.6-41.5-41.5-41.5S12.2,27.1,12.2,50c0,2,0.1,3.9,0.4,5.8
			L17.1,51.4z"/>
		<path id="XMLID_9_" class="st4" d="M90.6,68.5L87.1,65c-5.7,12.8-18.5,21.6-33.4,21.6c-15.9,0-29.4-10.1-34.5-24.2l-3.8,3.8
			c6.3,14.9,21,25.3,38.2,25.3c16.3,0,30.3-9.4,37.1-23H90.6z"/>
	</g>
</g>
<g>
	<g>
		<path class="st4" d="M122.1,62.6V38.7h7.5v3.8c0.9-1.4,1.9-2.4,3.1-3.1c1.2-0.7,2.5-1.1,4-1.1c1.5,0,2.9,0.4,4.1,1.2
			c1.2,0.8,2.1,1.9,2.6,3.2c0.9-1.4,2.1-2.5,3.4-3.3c1.3-0.8,2.8-1.2,4.4-1.2c2.2,0,4,0.8,5.4,2.4s2.1,3.6,2.1,6v15.9h-7.5V48.2
			c0-1.2-0.3-2.2-1-2.9c-0.7-0.7-1.5-1.1-2.6-1.1c-0.7,0-1.3,0.1-1.9,0.4c-0.6,0.3-1.1,0.8-1.6,1.4v16.5h-7.5V48.2
			c0-1.2-0.3-2.2-1-2.9c-0.7-0.7-1.5-1.1-2.6-1.1c-0.7,0-1.3,0.2-1.9,0.5c-0.6,0.3-1.1,0.8-1.6,1.4v16.5H122.1z"/>
		<path class="st4" d="M162.4,60.2l3.3-5c1.7,0.9,3.1,1.5,4.3,1.9c1.1,0.4,2.3,0.5,3.4,0.5c1,0,1.9-0.2,2.5-0.5
			c0.6-0.4,0.9-0.8,0.9-1.4c0-0.5-0.2-0.8-0.5-1.1s-0.9-0.5-1.7-0.6l-4.6-0.8c-2.3-0.4-4.1-1.2-5.3-2.4c-1.2-1.2-1.8-2.7-1.8-4.5
			c0-2.4,0.9-4.3,2.7-5.7s4.2-2.1,7.3-2.1c1.7,0,3.3,0.2,5,0.7c1.6,0.5,3.2,1.1,4.8,2l-3.4,4.8c-1.2-0.7-2.4-1.2-3.5-1.5
			c-1.1-0.3-2.2-0.5-3.4-0.5c-0.9,0-1.6,0.1-2.1,0.4c-0.5,0.3-0.8,0.7-0.8,1.2c0,0.5,0.2,0.9,0.5,1.1c0.4,0.2,1,0.4,1.9,0.6l4.5,0.8
			c2.3,0.4,4.1,1.2,5.4,2.4c1.2,1.2,1.8,2.7,1.8,4.5c0,1.2-0.3,2.3-0.8,3.3c-0.5,1-1.2,1.9-2.2,2.6c-0.9,0.7-2,1.3-3.3,1.7
			s-2.6,0.6-4.1,0.6c-2.2,0-4.2-0.2-6.1-0.7S163.7,61.1,162.4,60.2z"/>
		<path class="st4" d="M191.7,35c-1.2,0-2.2-0.4-3-1.2c-0.8-0.8-1.2-1.8-1.2-2.9c0-1.1,0.4-2.1,1.3-3c0.8-0.8,1.8-1.2,3-1.2
			c1.1,0,2.1,0.4,3,1.2c0.8,0.8,1.3,1.8,1.3,3c0,1.1-0.4,2.1-1.2,2.9C193.9,34.6,192.9,35,191.7,35z M195.4,38.7v23.9h-7.5V38.7
			H195.4z"/>
		<path class="st4" d="M201.3,62.6V38.7h7.5v3.9c0.9-1.4,2-2.4,3.3-3.2c1.3-0.7,2.7-1.1,4.2-1.1c2.3,0,4.2,0.8,5.7,2.3
			c1.5,1.5,2.2,3.5,2.2,5.9v16.1h-7.5V48.7c0-1.3-0.4-2.4-1.1-3.2c-0.7-0.8-1.7-1.2-2.9-1.2c-0.8,0-1.5,0.2-2.2,0.5
			c-0.7,0.3-1.3,0.8-1.8,1.5v16.4H201.3z"/>
		<path class="st4" d="M239.4,62.6c-1.5,0-2.8-0.3-4.1-0.9c-1.3-0.6-2.4-1.5-3.4-2.6c-0.9-1.1-1.7-2.4-2.2-3.8
			c-0.6-1.5-0.8-3-0.8-4.7c0-1.7,0.3-3.2,0.9-4.7c0.6-1.4,1.4-2.7,2.4-3.8c1-1.1,2.2-1.9,3.5-2.5c1.4-0.6,2.8-0.9,4.3-0.9
			c1.3,0,2.5,0.3,3.6,0.8c1.1,0.5,2.1,1.3,2.9,2.2v-2.9h7.4v24.2c0,3.2-1.1,5.7-3.3,7.4c-2.2,1.7-5.3,2.6-9.3,2.6
			c-1.8,0-3.5-0.2-5.2-0.6c-1.7-0.4-3.3-0.9-4.7-1.6l2.3-5.4c1.3,0.6,2.6,1.1,3.8,1.4c1.2,0.3,2.4,0.5,3.5,0.5c1.8,0,3.1-0.4,4-1.1
			c0.9-0.7,1.4-1.8,1.4-3.3v-3.4c-0.8,1-1.8,1.7-3,2.3C242.1,62.3,240.7,62.6,239.4,62.6z M236.2,50.6c0,1.7,0.5,3.1,1.6,4.2
			c1.1,1.1,2.4,1.7,4,1.7c0.9,0,1.7-0.2,2.5-0.5c0.7-0.3,1.4-0.8,2-1.4v-8c-0.6-0.6-1.3-1-2-1.4c-0.8-0.3-1.6-0.5-2.4-0.5
			c-1.6,0-3,0.6-4.1,1.7C236.7,47.5,236.2,48.9,236.2,50.6z"/>
		<path class="st4" d="M263.3,35c-1.2,0-2.2-0.4-3-1.2c-0.8-0.8-1.2-1.8-1.2-2.9c0-1.1,0.4-2.1,1.3-3c0.8-0.8,1.8-1.2,3-1.2
			c1.1,0,2.1,0.4,3,1.2c0.8,0.8,1.3,1.8,1.3,3c0,1.1-0.4,2.1-1.2,2.9C265.5,34.6,264.5,35,263.3,35z M267.1,38.7v23.9h-7.5V38.7
			H267.1z"/>
	</g>
</g>
</svg>
