<svg version="1.1" id="Layer_1" xmlns="http://www.w3.org/2000/svg" x="0" y="0" viewBox="0 0 278.4 100" xml:space="preserve">
  <style>
    .st0{fill:#363638}.st1{fill:#272829}.st2{fill:#f7942d}
  </style>
  <g id="XMLID_10_">
    <g id="XMLID_45_">
      <g id="XMLID_66_">
        <path id="XMLID_74_" class="st0" d="M31.7 52.1h2.7v2.7h-2.7z"/>
        <path id="XMLID_73_" class="st0" d="M35.2 52.1h2.7v2.7h-2.7z"/>
        <path id="XMLID_72_" class="st0" d="M31.7 55.7h2.7v2.7h-2.7z"/>
        <path id="XMLID_67_" class="st0" d="M35.2 55.7h2.7v2.7h-2.7z"/>
      </g>
      <g id="XMLID_56_">
        <path id="XMLID_61_" class="st0" d="M62.1 53.9h4.7v4.7h-4.7z"/>
        <path id="XMLID_60_" class="st0" d="M68.2 53.9h4.7v4.7h-4.7z"/>
        <path id="XMLID_59_" class="st0" d="M62.1 60h4.7v4.7h-4.7z"/>
        <path id="XMLID_58_" class="st0" d="M68.2 60h4.7v4.7h-4.7z"/>
      </g>
      <g id="XMLID_51_">
        <path id="XMLID_54_" class="st0" d="M58.4 42.4v-3.5h-4.2v7.7l-20 20h9.3l23.9-23.9v-9.3z"/>
        <path id="XMLID_52_" class="st1" d="M67.4 33.4v9.3l24 23.9h9.3z"/>
      </g>
      <g id="XMLID_46_">
        <path id="XMLID_49_" class="st2" d="M24.8 46.2v-3.1h-3.5v6.7L6.6 64.5h7.9l20.3-20.3v-8z"/>
        <path id="XMLID_47_" fill="#d98327" d="M34.8 36.2v8l9.4 9.4 4-4z"/>
      </g>
    </g>
    <g id="XMLID_26_">
      <path id="XMLID_29_" class="st2" d="M17.1 51.4V50c0-20.2 16.4-36.6 36.6-36.6S90.3 29.8 90.3 50c0 1.1-.1 2.3-.2 3.4l4.3 4.3c.5-2.5.7-5.1.7-7.7 0-22.9-18.6-41.5-41.5-41.5S12.2 27.1 12.2 50c0 2 .1 3.9.4 5.8l4.5-4.4z"/>
      <path id="XMLID_27_" class="st1" d="M90.6 68.5L87.1 65c-5.7 12.8-18.5 21.6-33.4 21.6-15.9 0-29.4-10.1-34.5-24.2l-3.8 3.8c6.3 14.9 21 25.3 38.2 25.3 16.3 0 30.3-9.4 37.1-23h-.1z"/>
    </g>
  </g>
  <path class="st1" d="M122.1 62.6V38.7h7.5v3.8c.9-1.4 1.9-2.4 3.1-3.1 1.2-.7 2.5-1.1 4-1.1s2.9.4 4.1 1.2c1.2.8 2.1 1.9 2.6 3.2.9-1.4 2.1-2.5 3.4-3.3 1.3-.8 2.8-1.2 4.4-1.2 2.2 0 4 .8 5.4 2.4s2.1 3.6 2.1 6v15.9h-7.5V48.2c0-1.2-.3-2.2-1-2.9-.7-.7-1.5-1.1-2.6-1.1-.7 0-1.3.1-1.9.4-.6.3-1.1.8-1.6 1.4v16.5h-7.5V48.2c0-1.2-.3-2.2-1-2.9-.7-.7-1.5-1.1-2.6-1.1-.7 0-1.3.2-1.9.5-.6.3-1.1.8-1.6 1.4v16.5h-7.4zM162.4 60.2l3.3-5c1.7.9 3.1 1.5 4.3 1.9 1.1.4 2.3.5 3.4.5 1 0 1.9-.2 2.5-.5.6-.4.9-.8.9-1.4 0-.5-.2-.8-.5-1.1s-.9-.5-1.7-.6l-4.6-.8c-2.3-.4-4.1-1.2-5.3-2.4-1.2-1.2-1.8-2.7-1.8-4.5 0-2.4.9-4.3 2.7-5.7s4.2-2.1 7.3-2.1c1.7 0 3.3.2 5 .7 1.6.5 3.2 1.1 4.8 2l-3.4 4.8c-1.2-.7-2.4-1.2-3.5-1.5-1.1-.3-2.2-.5-3.4-.5-.9 0-1.6.1-2.1.4-.5.3-.8.7-.8 1.2s.2.9.5 1.1c.4.2 1 .4 1.9.6l4.5.8c2.3.4 4.1 1.2 5.4 2.4 1.2 1.2 1.8 2.7 1.8 4.5 0 1.2-.3 2.3-.8 3.3s-1.2 1.9-2.2 2.6c-.9.7-2 1.3-3.3 1.7s-2.6.6-4.1.6c-2.2 0-4.2-.2-6.1-.7s-3.4-1.4-4.7-2.3zM191.7 35c-1.2 0-2.2-.4-3-1.2-.8-.8-1.2-1.8-1.2-2.9 0-1.1.4-2.1 1.3-3 .8-.8 1.8-1.2 3-1.2 1.1 0 2.1.4 3 1.2.8.8 1.3 1.8 1.3 3 0 1.1-.4 2.1-1.2 2.9-1 .8-2 1.2-3.2 1.2zm3.7 3.7v23.9h-7.5V38.7h7.5zM201.3 62.6V38.7h7.5v3.9c.9-1.4 2-2.4 3.3-3.2 1.3-.7 2.7-1.1 4.2-1.1 2.3 0 4.2.8 5.7 2.3 1.5 1.5 2.2 3.5 2.2 5.9v16.1h-7.5V48.7c0-1.3-.4-2.4-1.1-3.2-.7-.8-1.7-1.2-2.9-1.2-.8 0-1.5.2-2.2.5-.7.3-1.3.8-1.8 1.5v16.4h-7.4zM239.4 62.6c-1.5 0-2.8-.3-4.1-.9-1.3-.6-2.4-1.5-3.4-2.6-.9-1.1-1.7-2.4-2.2-3.8-.6-1.5-.8-3-.8-4.7 0-1.7.3-3.2.9-4.7.6-1.4 1.4-2.7 2.4-3.8 1-1.1 2.2-1.9 3.5-2.5 1.4-.6 2.8-.9 4.3-.9 1.3 0 2.5.3 3.6.8s2.1 1.3 2.9 2.2v-2.9h7.4V63c0 3.2-1.1 5.7-3.3 7.4-2.2 1.7-5.3 2.6-9.3 2.6-1.8 0-3.5-.2-5.2-.6-1.7-.4-3.3-.9-4.7-1.6l2.3-5.4c1.3.6 2.6 1.1 3.8 1.4 1.2.3 2.4.5 3.5.5 1.8 0 3.1-.4 4-1.1.9-.7 1.4-1.8 1.4-3.3v-3.4c-.8 1-1.8 1.7-3 2.3-1.3.5-2.7.8-4 .8zm-3.2-12c0 1.7.5 3.1 1.6 4.2s2.4 1.7 4 1.7c.9 0 1.7-.2 2.5-.5.7-.3 1.4-.8 2-1.4v-8c-.6-.6-1.3-1-2-1.4-.8-.3-1.6-.5-2.4-.5-1.6 0-3 .6-4.1 1.7-1.1 1.1-1.6 2.5-1.6 4.2zM263.3 35c-1.2 0-2.2-.4-3-1.2-.8-.8-1.2-1.8-1.2-2.9 0-1.1.4-2.1 1.3-3 .8-.8 1.8-1.2 3-1.2 1.1 0 2.1.4 3 1.2.8.8 1.3 1.8 1.3 3 0 1.1-.4 2.1-1.2 2.9-1 .8-2 1.2-3.2 1.2zm3.8 3.7v23.9h-7.5V38.7h7.5z"/>
</svg>