<svg width="284" height="56" viewBox="0 0 284 56" fill="none" xmlns="http://www.w3.org/2000/svg">
<path d="M112.741 33.8873L113.494 32.456C114.342 33.0599 115.699 33.4901 116.998 33.4901C118.673 33.4901 119.372 32.9813 119.372 32.1333C119.372 29.8912 113.064 31.8313 113.064 27.8559C113.064 26.0647 114.665 24.861 117.225 24.861C118.524 24.861 119.993 25.2002 120.861 25.7669L120.088 27.1982C119.182 26.6149 118.185 26.4081 117.205 26.4081C115.624 26.4081 114.851 26.9914 114.851 27.7815C114.851 30.1353 121.18 28.2158 121.18 32.0961C121.18 33.9038 119.521 35.0538 116.865 35.0538C115.211 35.0538 113.568 34.545 112.741 33.8873Z" fill="white"/>
<path d="M131.352 28.9109V34.9381H129.64V33.6185C129.036 34.5244 127.927 35.0498 126.363 35.0498C124.105 35.0498 122.673 33.846 122.673 32.1127C122.673 30.5118 123.708 29.1922 126.686 29.1922H129.549V28.8323C129.549 27.3059 128.663 26.4206 126.872 26.4206C125.685 26.4206 124.481 26.8343 123.708 27.4962L122.955 26.1393C123.989 25.312 125.478 24.8569 127.079 24.8569C129.805 24.8652 131.352 26.1807 131.352 28.9109ZM129.544 31.8893V30.4953H126.756C124.965 30.4953 124.456 31.1902 124.456 32.0383C124.456 33.0352 125.284 33.6599 126.661 33.6599C128.018 33.6599 129.089 33.0393 129.544 31.8893Z" fill="white"/>
<path d="M145.045 29.9493C145.045 33.0022 142.914 35.054 139.998 35.054C138.529 35.054 137.247 34.4873 136.436 33.3579V34.9423H134.703V20.9644H136.511V26.4662C137.338 25.3906 138.583 24.8653 139.994 24.8653C142.918 24.8653 145.045 26.8964 145.045 29.9493ZM143.216 29.9493C143.216 27.823 141.764 26.4455 139.845 26.4455C137.942 26.4455 136.494 27.8189 136.494 29.9493C136.494 32.0797 137.946 33.4696 139.845 33.4696C141.768 33.4696 143.216 32.0756 143.216 29.9493Z" fill="white"/>
<path d="M147.229 21.8702C147.229 21.2125 147.758 20.683 148.453 20.683C149.148 20.683 149.678 21.1918 149.678 21.833C149.678 22.5114 149.169 23.0368 148.453 23.0368C147.758 23.0368 147.229 22.528 147.229 21.8702ZM147.552 24.9562H149.359V34.9381H147.552V24.9562Z" fill="white"/>
<path d="M83.1304 24.9562L79.3991 34.9381H77.6658L74.7825 27.3679L71.862 34.9381H70.1287L66.4181 24.9562H68.1307L71.0305 32.9028L74.0462 24.9562H75.5726L78.5304 32.9442L81.5047 24.9562H83.1304Z" fill="white"/>
<path d="M92.5497 28.9109V34.9381H90.8371V33.6185C90.2332 34.5244 89.1245 35.0498 87.5609 35.0498C85.3022 35.0498 83.8709 33.846 83.8709 32.1127C83.8709 30.5118 84.9051 29.1922 87.8835 29.1922H90.7461V28.8323C90.7461 27.3059 89.8609 26.4206 88.0697 26.4206C86.8824 26.4206 85.6787 26.8343 84.9051 27.4962L84.1522 26.1393C85.1864 25.312 86.6756 24.8569 88.2765 24.8569C91.0026 24.8652 92.5497 26.1807 92.5497 28.9109ZM90.742 31.8893V30.4953H87.9538C86.1626 30.4953 85.6538 31.1902 85.6538 32.0383C85.6538 33.0352 86.4812 33.6599 87.8587 33.6599C89.2155 33.6599 90.287 33.0393 90.742 31.8893Z" fill="white"/>
<path d="M106.242 29.9493C106.242 33.0022 104.112 35.054 101.195 35.054C99.7269 35.054 98.4445 34.4873 97.6337 33.3579V34.9423H95.9005V20.9644H97.7082V26.4662C98.5355 25.3906 99.7807 24.8653 101.191 24.8653C104.112 24.8653 106.242 26.8964 106.242 29.9493ZM104.414 29.9493C104.414 27.823 102.962 26.4455 101.042 26.4455C99.1395 26.4455 97.6916 27.8189 97.6916 29.9493C97.6916 32.0797 99.1436 33.4696 101.042 33.4696C102.966 33.4696 104.414 32.0756 104.414 29.9493Z" fill="white"/>
<path d="M108.426 21.8702C108.426 21.2125 108.952 20.683 109.651 20.683C110.346 20.683 110.875 21.1918 110.875 21.833C110.875 22.5114 110.367 23.0368 109.651 23.0368C108.956 23.0368 108.426 22.528 108.426 21.8702ZM108.749 24.9562H110.557V34.9381H108.749V24.9562Z" fill="white"/>
<path d="M162.067 34.6154C161.521 35.087 160.694 35.3103 159.883 35.3103C157.868 35.3103 156.718 34.1976 156.718 32.183V26.7018H155.022V25.2126H156.718V23.0284H158.526V25.2126H161.389V26.7018H158.526V32.1085C158.526 33.1841 159.093 33.7839 160.09 33.7839C160.615 33.7839 161.124 33.6143 161.505 33.3123L162.067 34.6154Z" fill="white"/>
<path d="M172.897 30.8139H164.798C165.025 32.5678 166.436 33.7344 168.413 33.7344C169.58 33.7344 170.56 33.3372 171.296 32.5306L172.293 33.6971C171.387 34.752 170.014 35.3187 168.355 35.3187C165.133 35.3187 162.986 33.1883 162.986 30.214C162.986 27.2563 165.116 25.13 167.995 25.13C170.874 25.13 172.93 27.2025 172.93 30.2719C172.934 30.4167 172.914 30.6443 172.897 30.8139ZM164.798 29.5149H171.201C171.011 27.8396 169.749 26.6523 167.999 26.6523C166.266 26.6482 164.984 27.8189 164.798 29.5149Z" fill="white"/>
<path d="M174.519 30.2097C174.519 27.2354 176.723 25.1257 179.793 25.1257C181.584 25.1257 183.069 25.8621 183.859 27.252L182.486 28.1373C181.845 27.1569 180.864 26.7059 179.772 26.7059C177.811 26.7059 176.343 28.0793 176.343 30.2097C176.343 32.3774 177.811 33.7301 179.772 33.7301C180.864 33.7301 181.845 33.2792 182.486 32.2988L183.859 33.1634C183.069 34.5574 181.58 35.3103 179.793 35.3103C176.719 35.3145 174.519 33.184 174.519 30.2097Z" fill="white"/>
<path d="M195.537 29.4569V35.2028H193.73V29.6637C193.73 27.7029 192.749 26.7432 191.037 26.7432C189.117 26.7432 187.872 27.8932 187.872 30.0567V35.1986H186.064V21.2207H187.872V26.6274C188.625 25.6677 189.87 25.1216 191.392 25.1216C193.825 25.1258 195.537 26.5198 195.537 29.4569Z" fill="white"/>
<path d="M208.365 29.457V35.2029H206.557V29.6638C206.557 27.703 205.577 26.7433 203.864 26.7433C201.945 26.7433 200.7 27.8933 200.7 30.0568V35.1987H198.892V25.2169H200.625V26.7226C201.362 25.705 202.64 25.1217 204.224 25.1217C206.653 25.1258 208.365 26.5199 208.365 29.457Z" fill="white"/>
<path d="M211.228 30.2097C211.228 27.2354 213.433 25.1257 216.428 25.1257C219.423 25.1257 221.607 27.2354 221.607 30.2097C221.607 33.184 219.423 35.3144 216.428 35.3144C213.433 35.3144 211.228 33.184 211.228 30.2097ZM219.783 30.2097C219.783 28.0835 218.351 26.7059 216.432 26.7059C214.513 26.7059 213.061 28.0793 213.061 30.2097C213.061 32.3401 214.513 33.7301 216.432 33.7301C218.347 33.7301 219.783 32.3401 219.783 30.2097Z" fill="white"/>
<path d="M224.966 21.2249H226.774V35.2028H224.966V21.2249Z" fill="white"/>
<path d="M229.301 30.2097C229.301 27.2354 231.506 25.1257 234.501 25.1257C237.496 25.1257 239.68 27.2354 239.68 30.2097C239.68 33.184 237.496 35.3144 234.501 35.3144C231.502 35.3144 229.301 33.184 229.301 30.2097ZM237.852 30.2097C237.852 28.0835 236.42 26.7059 234.501 26.7059C232.582 26.7059 231.13 28.0793 231.13 30.2097C231.13 32.3401 232.582 33.7301 234.501 33.7301C236.42 33.7301 237.852 32.3401 237.852 30.2097Z" fill="white"/>
<path d="M251.735 25.2168V33.8419C251.735 37.3622 249.943 38.9631 246.555 38.9631C244.727 38.9631 242.882 38.4543 241.79 37.4739L242.655 36.0798C243.577 36.8699 245.029 37.3787 246.498 37.3787C248.851 37.3787 249.927 36.2867 249.927 34.0239V33.2338C249.062 34.2679 247.759 34.7768 246.328 34.7768C243.445 34.7768 241.26 32.8159 241.26 29.9368C241.26 27.0535 243.445 25.1134 246.328 25.1134C247.817 25.1134 249.174 25.6594 250.018 26.7515V25.2085H251.735V25.2168ZM249.964 29.9451C249.964 28.005 248.533 26.706 246.535 26.706C244.52 26.706 243.089 28.005 243.089 29.9451C243.089 31.8645 244.52 33.2048 246.535 33.2048C248.533 33.2048 249.964 31.8686 249.964 29.9451Z" fill="white"/>
<path d="M254.862 22.1307C254.862 21.473 255.391 20.9435 256.086 20.9435C256.781 20.9435 257.311 21.4523 257.311 22.0935C257.311 22.7719 256.802 23.2973 256.086 23.2973C255.387 23.2973 254.862 22.7885 254.862 22.1307ZM255.18 25.2167H256.988V35.1986H255.18V25.2167Z" fill="white"/>
<path d="M269.419 30.8137H261.319C261.547 32.5677 262.957 33.7343 264.935 33.7343C266.101 33.7343 267.082 33.3371 267.818 32.5305L268.815 33.697C267.909 34.7519 266.536 35.3186 264.877 35.3186C261.654 35.3186 259.507 33.1882 259.507 30.2139C259.507 27.2562 261.638 25.1299 264.517 25.1299C267.396 25.1299 269.452 27.2024 269.452 30.2718C269.456 30.4166 269.44 30.6441 269.419 30.8137ZM261.319 29.5148H267.723C267.533 27.8394 266.271 26.6522 264.521 26.6522C262.792 26.6481 261.51 27.8187 261.319 29.5148Z" fill="white"/>
<path d="M270.701 34.1479L271.454 32.7166C272.302 33.3205 273.659 33.7508 274.958 33.7508C276.633 33.7508 277.332 33.2419 277.332 32.3939C277.332 30.1518 271.024 32.0919 271.024 28.1166C271.024 26.3254 272.625 25.1216 275.185 25.1216C276.484 25.1216 277.953 25.4608 278.822 26.0275L278.048 27.4588C277.142 26.8755 276.145 26.6687 275.165 26.6687C273.585 26.6687 272.811 27.252 272.811 28.0421C272.811 30.3959 279.14 28.4765 279.14 32.3567C279.14 34.1644 277.481 35.3144 274.826 35.3144C273.171 35.3144 271.529 34.8056 270.701 34.1479Z" fill="white"/>
<path d="M280.555 34.0155C280.555 33.2627 281.138 32.7332 281.837 32.7332C282.516 32.7332 283.078 33.2627 283.078 34.0155C283.078 34.7684 282.512 35.3145 281.837 35.3145C281.138 35.3145 280.555 34.7684 280.555 34.0155Z" fill="white"/>
<path d="M27.5253 55.0505C42.727 55.0505 55.0505 42.7271 55.0505 27.5253C55.0505 12.3235 42.727 0 27.5253 0C12.3235 0 0 12.3235 0 27.5253C0 42.7271 12.3235 55.0505 27.5253 55.0505Z" fill="white"/>
<path d="M18.9646 25.208L17.0224 30.41H16.1215L14.6218 26.4629L13.1013 30.41H12.2005L10.2686 25.208H11.159L12.6691 29.3477L14.2417 25.208H15.0384L16.5797 29.3686L18.1315 25.208H18.9646Z" fill="#101236"/>
<path d="M23.5782 27.2649V30.4048H22.6878V29.7175C22.3753 30.1861 21.7973 30.4621 20.9798 30.4621C19.803 30.4621 19.0583 29.832 19.0583 28.9312C19.0583 28.098 19.5999 27.4107 21.1464 27.4107H22.6357V27.2232C22.6357 26.4265 22.1723 25.9683 21.2402 25.9683C20.6205 25.9683 19.9956 26.1818 19.5895 26.5254L19.1989 25.8173C19.7405 25.3851 20.5112 25.1508 21.3495 25.1508C22.7763 25.156 23.5782 25.8433 23.5782 27.2649ZM22.6357 28.8166V28.0928H21.1829C20.2508 28.0928 19.9852 28.4573 19.9852 28.8947C19.9852 29.4155 20.4174 29.7383 21.136 29.7383C21.839 29.7383 22.4014 29.4154 22.6357 28.8166Z" fill="#101236"/>
<path d="M30.4204 27.8064C30.4204 29.3946 29.3113 30.4673 27.7908 30.4673C27.0253 30.4673 26.3588 30.1705 25.937 29.582V30.4048H25.0362V23.1251H25.9787V25.9891C26.4109 25.4319 27.0566 25.1559 27.796 25.1559C29.3113 25.1559 30.4204 26.2182 30.4204 27.8064ZM29.4675 27.8064C29.4675 26.6973 28.7125 25.9839 27.7127 25.9839C26.7233 25.9839 25.9683 26.7025 25.9683 27.8064C25.9683 28.9155 26.7233 29.6393 27.7127 29.6393C28.7125 29.6393 29.4675 28.9155 29.4675 27.8064Z" fill="#101236"/>
<path d="M31.0715 23.599C31.0715 23.2554 31.3475 22.9794 31.712 22.9794C32.0765 22.9794 32.3472 23.2449 32.3472 23.5782C32.3472 23.9323 32.0817 24.2083 31.712 24.2083C31.3422 24.2031 31.0715 23.9427 31.0715 23.599ZM31.2381 25.2081H32.1806V30.4101H31.2381V25.2081Z" fill="#101236"/>
<path d="M33.4562 38.174C33.4562 37.7834 33.7583 37.5074 34.1228 37.5074C34.4768 37.5074 34.7684 37.7834 34.7684 38.174C34.7684 38.5645 34.4716 38.8509 34.1228 38.8509C33.7583 38.8509 33.4562 38.5697 33.4562 38.174Z" fill="#101236"/>
<path d="M14.1789 38.0125L14.5694 37.2679C15.012 37.5803 15.715 37.8095 16.392 37.8095C17.2668 37.8095 17.6261 37.5439 17.6261 37.1013C17.6261 35.9349 14.3403 36.9451 14.3403 34.8726C14.3403 33.9405 15.1735 33.3104 16.5117 33.3104C17.1887 33.3104 17.9541 33.4875 18.4071 33.7791L18.0062 34.5237C17.5375 34.2217 17.0168 34.1123 16.5065 34.1123C15.6838 34.1123 15.2776 34.4144 15.2776 34.8309C15.2776 36.0598 18.5738 35.0548 18.5738 37.0804C18.5738 38.023 17.7094 38.6218 16.3243 38.6218C15.4651 38.6218 14.6111 38.3562 14.1789 38.0125Z" fill="#2C9F48"/>
<path d="M23.5831 35.4193V38.5592H22.6927V37.8719C22.3803 38.3405 21.8023 38.6165 20.9847 38.6165C19.8079 38.6165 19.0633 37.9864 19.0633 37.0856C19.0633 36.2524 19.6048 35.5651 21.1514 35.5651H22.6406V35.3776C22.6406 34.5809 22.1772 34.1227 21.2451 34.1227C20.6254 34.1227 20.0006 34.3362 19.5944 34.6799L19.2039 33.9717C19.7454 33.5395 20.5161 33.3052 21.3545 33.3052C22.776 33.3104 23.5831 33.9977 23.5831 35.4193ZM22.6406 36.971V36.2472H21.1878C20.2557 36.2472 19.9902 36.6117 19.9902 37.0492C19.9902 37.5699 20.4224 37.8927 21.141 37.8927C21.8439 37.8927 22.4063 37.5699 22.6406 36.971Z" fill="#2C9F48"/>
<path d="M30.4253 35.9609C30.4253 37.5491 29.3161 38.6218 27.7956 38.6218C27.0302 38.6218 26.3636 38.325 25.9419 37.7366V38.5593H25.041V31.2797H25.9835V34.1436C26.4157 33.5865 27.0614 33.3105 27.8008 33.3105C29.3161 33.3105 30.4253 34.3727 30.4253 35.9609ZM29.4723 35.9609C29.4723 34.8518 28.7173 34.1384 27.7175 34.1384C26.7281 34.1384 25.9731 34.857 25.9731 35.9609C25.9731 37.0701 26.7281 37.7939 27.7175 37.7939C28.7173 37.7939 29.4723 37.0701 29.4723 35.9609Z" fill="#2C9F48"/>
<path d="M31.269 31.7534C31.269 31.4098 31.545 31.1338 31.9095 31.1338C32.274 31.1338 32.5448 31.3994 32.5448 31.7326C32.5448 32.0867 32.2792 32.3627 31.9095 32.3627C31.545 32.3575 31.269 32.0919 31.269 31.7534ZM31.4356 33.3625H32.3781V38.5645H31.4356V33.3625Z" fill="#2C9F48"/>
</svg>
